# xmcd
#
# Track frame offsets:
#	150
#	35508
#	65972
#	91620
#	115384
#	137818
#	152526
#	170681
#	194650
#	223283
#
# Disc length: 3346 seconds
#
# Revision: 1
# Processed by: cddbd v1.5.2PL0 Copyright (c) Steve Scherf et al.
# Submitted via: audiograbber 1.83.01
#
DISCID=980d100a
DTITLE=R. Kelly - Essential Mixes
DYEAR=2010
DGENRE=R&B
TTITLE0=Step in the name of love (Tom Neville´s Jazz Rocket Mix)
TTITLE1=U saved me (Kenny Dope Remix Loud Vox)
TTITLE2=Bump N´ Grind (How i feel it mix - extended)
TTITLE3=I wish (to the homies that we lost remix)
TTITLE4=Your body´s callin´ (Prelude/ His and Hers Mix)
TTITLE5=Feelin´ on yo booty (Hypnosis mix)
TTITLE6=I can´t sleep baby (if i) (Street version remix)
TTITLE7=Summer bunnies (Contest extended remix)
TTITLE8=Be my #2 (Terry Hunter remix)
TTITLE9=Thank god it´s friday (The incognito mix)
EXTD=
EXTT0=
EXTT1=
EXTT2=
EXTT3=
EXTT4=
EXTT5=
EXTT6=
EXTT7=
EXTT8=
EXTT9=
PLAYORDER=
